<mxfile host="app.diagrams.net" agent="Mozilla/5.0 (Windows NT 10.0; Win64; x64) AppleWebKit/537.36 (KHTML, like Gecko) Chrome/127.0.0.0 Safari/537.36" version="24.7.7">
  <diagram id="R2lEEEUBdFMjLlhIrx00" name="Page-1">
    <mxGraphModel dx="2284" dy="818" grid="1" gridSize="10" guides="1" tooltips="1" connect="1" arrows="1" fold="1" page="1" pageScale="1" pageWidth="850" pageHeight="1100" math="0" shadow="0" extFonts="Permanent Marker^https://fonts.googleapis.com/css?family=Permanent+Marker">
      <root>
        <mxCell id="0" />
        <mxCell id="1" parent="0" />
        <mxCell id="gu10VFRW0FJSJ6zA2KeF-1" value="&lt;font style=&quot;font-size: 14px;&quot; face=&quot;Verdana&quot;&gt;Patient&lt;/font&gt;" style="whiteSpace=wrap;html=1;align=center;" vertex="1" parent="1">
          <mxGeometry x="-430" y="220" width="100" height="40" as="geometry" />
        </mxCell>
        <mxCell id="gu10VFRW0FJSJ6zA2KeF-2" value="&lt;font face=&quot;Verdana&quot; style=&quot;font-size: 14px;&quot;&gt;Doctor&lt;/font&gt;" style="whiteSpace=wrap;html=1;align=center;" vertex="1" parent="1">
          <mxGeometry x="375" y="220" width="100" height="40" as="geometry" />
        </mxCell>
        <mxCell id="gu10VFRW0FJSJ6zA2KeF-5" value="&lt;font style=&quot;font-size: 14px;&quot; face=&quot;Verdana&quot;&gt;Appoinments&lt;/font&gt;" style="whiteSpace=wrap;html=1;align=center;" vertex="1" parent="1">
          <mxGeometry x="-20" y="220" width="100" height="40" as="geometry" />
        </mxCell>
        <mxCell id="gu10VFRW0FJSJ6zA2KeF-6" value="&lt;font face=&quot;Verdana&quot; style=&quot;font-size: 14px;&quot;&gt;Department&lt;/font&gt;" style="whiteSpace=wrap;html=1;align=center;" vertex="1" parent="1">
          <mxGeometry x="375" y="480" width="100" height="40" as="geometry" />
        </mxCell>
        <mxCell id="gu10VFRW0FJSJ6zA2KeF-7" value="Medical_records" style="whiteSpace=wrap;html=1;align=center;" vertex="1" parent="1">
          <mxGeometry x="-50" y="485" width="110" height="40" as="geometry" />
        </mxCell>
        <mxCell id="gu10VFRW0FJSJ6zA2KeF-8" value="Name" style="ellipse;whiteSpace=wrap;html=1;align=center;" vertex="1" parent="1">
          <mxGeometry x="-525" y="110" width="100" height="40" as="geometry" />
        </mxCell>
        <mxCell id="gu10VFRW0FJSJ6zA2KeF-9" value="" style="endArrow=none;html=1;rounded=0;entryX=0.5;entryY=0;entryDx=0;entryDy=0;exitX=0.5;exitY=1;exitDx=0;exitDy=0;" edge="1" parent="1" source="gu10VFRW0FJSJ6zA2KeF-8" target="gu10VFRW0FJSJ6zA2KeF-1">
          <mxGeometry relative="1" as="geometry">
            <mxPoint x="-230" y="160" as="sourcePoint" />
            <mxPoint x="-70" y="160" as="targetPoint" />
          </mxGeometry>
        </mxCell>
        <mxCell id="gu10VFRW0FJSJ6zA2KeF-11" value="" style="endArrow=none;html=1;rounded=0;entryX=0.5;entryY=0;entryDx=0;entryDy=0;exitX=0.5;exitY=1;exitDx=0;exitDy=0;" edge="1" parent="1" source="gu10VFRW0FJSJ6zA2KeF-12" target="gu10VFRW0FJSJ6zA2KeF-1">
          <mxGeometry relative="1" as="geometry">
            <mxPoint x="-20" y="130" as="sourcePoint" />
            <mxPoint y="190" as="targetPoint" />
          </mxGeometry>
        </mxCell>
        <mxCell id="gu10VFRW0FJSJ6zA2KeF-12" value="Date_of_Birth" style="ellipse;whiteSpace=wrap;html=1;align=center;" vertex="1" parent="1">
          <mxGeometry x="-320" y="110" width="100" height="40" as="geometry" />
        </mxCell>
        <mxCell id="gu10VFRW0FJSJ6zA2KeF-14" value="" style="endArrow=none;html=1;rounded=0;exitX=0.25;exitY=1;exitDx=0;exitDy=0;entryX=0.5;entryY=0;entryDx=0;entryDy=0;" edge="1" parent="1" source="gu10VFRW0FJSJ6zA2KeF-1" target="gu10VFRW0FJSJ6zA2KeF-48">
          <mxGeometry relative="1" as="geometry">
            <mxPoint x="-90" y="250" as="sourcePoint" />
            <mxPoint x="-380" y="300" as="targetPoint" />
          </mxGeometry>
        </mxCell>
        <mxCell id="gu10VFRW0FJSJ6zA2KeF-21" value="Address" style="ellipse;whiteSpace=wrap;html=1;align=center;" vertex="1" parent="1">
          <mxGeometry x="-630" y="220" width="100" height="40" as="geometry" />
        </mxCell>
        <mxCell id="gu10VFRW0FJSJ6zA2KeF-23" value="" style="endArrow=none;html=1;rounded=0;entryX=0;entryY=0.5;entryDx=0;entryDy=0;exitX=1;exitY=0.5;exitDx=0;exitDy=0;" edge="1" parent="1" source="gu10VFRW0FJSJ6zA2KeF-21" target="gu10VFRW0FJSJ6zA2KeF-1">
          <mxGeometry relative="1" as="geometry">
            <mxPoint x="-200" y="195" as="sourcePoint" />
            <mxPoint x="-140" y="265" as="targetPoint" />
          </mxGeometry>
        </mxCell>
        <mxCell id="gu10VFRW0FJSJ6zA2KeF-24" value="" style="endArrow=none;html=1;rounded=0;entryX=0;entryY=0.5;entryDx=0;entryDy=0;exitX=1;exitY=1;exitDx=0;exitDy=0;" edge="1" parent="1" source="gu10VFRW0FJSJ6zA2KeF-25" target="gu10VFRW0FJSJ6zA2KeF-1">
          <mxGeometry relative="1" as="geometry">
            <mxPoint x="-260" y="140" as="sourcePoint" />
            <mxPoint x="-150" y="180" as="targetPoint" />
          </mxGeometry>
        </mxCell>
        <mxCell id="gu10VFRW0FJSJ6zA2KeF-25" value="Phone_Number" style="ellipse;shape=doubleEllipse;margin=3;whiteSpace=wrap;html=1;align=center;" vertex="1" parent="1">
          <mxGeometry x="-620" y="150" width="110" height="40" as="geometry" />
        </mxCell>
        <mxCell id="gu10VFRW0FJSJ6zA2KeF-26" value="" style="endArrow=none;html=1;rounded=0;entryX=0;entryY=0.5;entryDx=0;entryDy=0;exitX=0.5;exitY=0;exitDx=0;exitDy=0;" edge="1" parent="1" source="gu10VFRW0FJSJ6zA2KeF-27" target="gu10VFRW0FJSJ6zA2KeF-1">
          <mxGeometry relative="1" as="geometry">
            <mxPoint x="-240" y="320" as="sourcePoint" />
            <mxPoint x="-200" y="326" as="targetPoint" />
          </mxGeometry>
        </mxCell>
        <mxCell id="gu10VFRW0FJSJ6zA2KeF-27" value="Email_ID" style="ellipse;whiteSpace=wrap;html=1;align=center;" vertex="1" parent="1">
          <mxGeometry x="-590" y="300" width="100" height="40" as="geometry" />
        </mxCell>
        <mxCell id="gu10VFRW0FJSJ6zA2KeF-29" value="" style="endArrow=none;html=1;rounded=0;entryX=0.5;entryY=0;entryDx=0;entryDy=0;exitX=0.5;exitY=1;exitDx=0;exitDy=0;" edge="1" parent="1" source="gu10VFRW0FJSJ6zA2KeF-31" target="gu10VFRW0FJSJ6zA2KeF-1">
          <mxGeometry relative="1" as="geometry">
            <mxPoint x="-80" y="80" as="sourcePoint" />
            <mxPoint x="-80" y="90" as="targetPoint" />
          </mxGeometry>
        </mxCell>
        <mxCell id="gu10VFRW0FJSJ6zA2KeF-31" value="&lt;span style=&quot;color: rgb(29, 33, 37); font-family: -apple-system, BlinkMacSystemFont, &amp;quot;Segoe UI&amp;quot;, Roboto, &amp;quot;Helvetica Neue&amp;quot;, Arial, &amp;quot;Noto Sans&amp;quot;, &amp;quot;Liberation Sans&amp;quot;, sans-serif, &amp;quot;Apple Color Emoji&amp;quot;, &amp;quot;Segoe UI Emoji&amp;quot;, &amp;quot;Segoe UI Symbol&amp;quot;, &amp;quot;Noto Color Emoji&amp;quot;; text-align: left; background-color: rgb(255, 255, 255);&quot;&gt;&lt;font style=&quot;font-size: 12px;&quot;&gt;Insurance_Details&lt;/font&gt;&lt;/span&gt;" style="ellipse;whiteSpace=wrap;html=1;align=center;" vertex="1" parent="1">
          <mxGeometry x="-430" y="50" width="100" height="50" as="geometry" />
        </mxCell>
        <mxCell id="gu10VFRW0FJSJ6zA2KeF-33" value="" style="endArrow=none;html=1;rounded=0;entryX=0.5;entryY=0;entryDx=0;entryDy=0;exitX=0.5;exitY=1;exitDx=0;exitDy=0;" edge="1" parent="1" source="gu10VFRW0FJSJ6zA2KeF-49" target="gu10VFRW0FJSJ6zA2KeF-5">
          <mxGeometry relative="1" as="geometry">
            <mxPoint x="-20" y="155" as="sourcePoint" />
            <mxPoint x="200" y="180" as="targetPoint" />
          </mxGeometry>
        </mxCell>
        <mxCell id="gu10VFRW0FJSJ6zA2KeF-37" value="&lt;div&gt;&amp;nbsp;&lt;/div&gt;&lt;div&gt;Appointment&lt;/div&gt;&lt;div&gt;Date&lt;/div&gt;&lt;div&gt;&lt;br&gt;&lt;/div&gt;" style="ellipse;whiteSpace=wrap;html=1;align=center;" vertex="1" parent="1">
          <mxGeometry x="100" y="70" width="100" height="40" as="geometry" />
        </mxCell>
        <mxCell id="gu10VFRW0FJSJ6zA2KeF-39" value="" style="endArrow=none;html=1;rounded=0;entryX=0.5;entryY=0;entryDx=0;entryDy=0;exitX=0;exitY=1;exitDx=0;exitDy=0;" edge="1" parent="1" source="gu10VFRW0FJSJ6zA2KeF-37" target="gu10VFRW0FJSJ6zA2KeF-5">
          <mxGeometry relative="1" as="geometry">
            <mxPoint x="50" y="160" as="sourcePoint" />
            <mxPoint x="50" y="225" as="targetPoint" />
          </mxGeometry>
        </mxCell>
        <mxCell id="gu10VFRW0FJSJ6zA2KeF-40" value="&lt;div&gt;&amp;nbsp;&lt;/div&gt;&lt;div&gt;Appointment&lt;/div&gt;&lt;div&gt;Date&lt;/div&gt;&lt;div&gt;&lt;br&gt;&lt;/div&gt;" style="ellipse;whiteSpace=wrap;html=1;align=center;" vertex="1" parent="1">
          <mxGeometry x="-160" y="65" width="100" height="40" as="geometry" />
        </mxCell>
        <mxCell id="gu10VFRW0FJSJ6zA2KeF-41" value="&lt;font style=&quot;font-size: 16px;&quot;&gt;Has&lt;/font&gt;" style="shape=rhombus;perimeter=rhombusPerimeter;whiteSpace=wrap;html=1;align=center;" vertex="1" parent="1">
          <mxGeometry x="-260" y="210" width="120" height="60" as="geometry" />
        </mxCell>
        <mxCell id="gu10VFRW0FJSJ6zA2KeF-48" value="Patient_ID" style="ellipse;whiteSpace=wrap;html=1;align=center;fontStyle=4;" vertex="1" parent="1">
          <mxGeometry x="-480" y="320" width="100" height="40" as="geometry" />
        </mxCell>
        <mxCell id="gu10VFRW0FJSJ6zA2KeF-49" value="Patient_ID" style="ellipse;whiteSpace=wrap;html=1;align=center;fontStyle=4;" vertex="1" parent="1">
          <mxGeometry x="-30" y="65" width="100" height="40" as="geometry" />
        </mxCell>
        <mxCell id="gu10VFRW0FJSJ6zA2KeF-54" value="" style="edgeStyle=entityRelationEdgeStyle;fontSize=12;html=1;endArrow=ERone;endFill=1;rounded=0;entryX=1;entryY=0.5;entryDx=0;entryDy=0;exitX=0;exitY=0.5;exitDx=0;exitDy=0;" edge="1" parent="1" source="gu10VFRW0FJSJ6zA2KeF-41" target="gu10VFRW0FJSJ6zA2KeF-1">
          <mxGeometry width="100" height="100" relative="1" as="geometry">
            <mxPoint x="-300" y="380" as="sourcePoint" />
            <mxPoint x="-200" y="280" as="targetPoint" />
          </mxGeometry>
        </mxCell>
        <mxCell id="gu10VFRW0FJSJ6zA2KeF-58" value="" style="edgeStyle=entityRelationEdgeStyle;fontSize=12;html=1;endArrow=ERoneToMany;rounded=0;exitX=1;exitY=0.5;exitDx=0;exitDy=0;entryX=0;entryY=0.5;entryDx=0;entryDy=0;" edge="1" parent="1" source="gu10VFRW0FJSJ6zA2KeF-41" target="gu10VFRW0FJSJ6zA2KeF-5">
          <mxGeometry width="100" height="100" relative="1" as="geometry">
            <mxPoint x="40" y="430" as="sourcePoint" />
            <mxPoint x="140" y="330" as="targetPoint" />
          </mxGeometry>
        </mxCell>
        <mxCell id="gu10VFRW0FJSJ6zA2KeF-59" value="" style="endArrow=none;html=1;rounded=0;entryX=0.5;entryY=0;entryDx=0;entryDy=0;exitX=1;exitY=1;exitDx=0;exitDy=0;" edge="1" parent="1" source="gu10VFRW0FJSJ6zA2KeF-40" target="gu10VFRW0FJSJ6zA2KeF-5">
          <mxGeometry relative="1" as="geometry">
            <mxPoint x="-80" y="150" as="sourcePoint" />
            <mxPoint x="-80" y="225" as="targetPoint" />
          </mxGeometry>
        </mxCell>
        <mxCell id="gu10VFRW0FJSJ6zA2KeF-61" value="" style="edgeStyle=entityRelationEdgeStyle;fontSize=12;html=1;endArrow=ERoneToMany;rounded=0;entryX=1;entryY=0.5;entryDx=0;entryDy=0;exitX=0;exitY=0.5;exitDx=0;exitDy=0;" edge="1" parent="1" source="gu10VFRW0FJSJ6zA2KeF-64" target="gu10VFRW0FJSJ6zA2KeF-5">
          <mxGeometry width="100" height="100" relative="1" as="geometry">
            <mxPoint x="170" y="240" as="sourcePoint" />
            <mxPoint x="210" y="259" as="targetPoint" />
          </mxGeometry>
        </mxCell>
        <mxCell id="gu10VFRW0FJSJ6zA2KeF-62" value="&lt;div&gt;&amp;nbsp;&lt;/div&gt;&lt;div&gt;Appointment&lt;/div&gt;&lt;div&gt;Date&lt;/div&gt;&lt;div&gt;&lt;br&gt;&lt;/div&gt;" style="ellipse;whiteSpace=wrap;html=1;align=center;" vertex="1" parent="1">
          <mxGeometry x="-150" y="280" width="100" height="40" as="geometry" />
        </mxCell>
        <mxCell id="gu10VFRW0FJSJ6zA2KeF-63" value="" style="endArrow=none;html=1;rounded=0;entryX=0.5;entryY=0;entryDx=0;entryDy=0;exitX=0;exitY=1;exitDx=0;exitDy=0;" edge="1" parent="1" source="gu10VFRW0FJSJ6zA2KeF-5" target="gu10VFRW0FJSJ6zA2KeF-62">
          <mxGeometry relative="1" as="geometry">
            <mxPoint x="29.5" y="270" as="sourcePoint" />
            <mxPoint x="29.5" y="345" as="targetPoint" />
          </mxGeometry>
        </mxCell>
        <mxCell id="gu10VFRW0FJSJ6zA2KeF-64" value="&lt;strong&gt;Schedules&lt;/strong&gt;" style="shape=rhombus;perimeter=rhombusPerimeter;whiteSpace=wrap;html=1;align=center;" vertex="1" parent="1">
          <mxGeometry x="170" y="210" width="120" height="60" as="geometry" />
        </mxCell>
        <mxCell id="gu10VFRW0FJSJ6zA2KeF-66" value="" style="edgeStyle=entityRelationEdgeStyle;fontSize=12;html=1;endArrow=ERone;endFill=1;rounded=0;entryX=0;entryY=0.5;entryDx=0;entryDy=0;exitX=1;exitY=0.5;exitDx=0;exitDy=0;" edge="1" parent="1" source="gu10VFRW0FJSJ6zA2KeF-64" target="gu10VFRW0FJSJ6zA2KeF-2">
          <mxGeometry width="100" height="100" relative="1" as="geometry">
            <mxPoint x="330" y="330" as="sourcePoint" />
            <mxPoint x="260" y="330" as="targetPoint" />
          </mxGeometry>
        </mxCell>
        <mxCell id="gu10VFRW0FJSJ6zA2KeF-67" value="Patient_ID" style="ellipse;whiteSpace=wrap;html=1;align=center;fontStyle=4;" vertex="1" parent="1">
          <mxGeometry x="250" y="70" width="100" height="40" as="geometry" />
        </mxCell>
        <mxCell id="gu10VFRW0FJSJ6zA2KeF-68" value="" style="endArrow=none;html=1;rounded=0;entryX=0.5;entryY=0;entryDx=0;entryDy=0;exitX=1;exitY=1;exitDx=0;exitDy=0;" edge="1" parent="1" source="gu10VFRW0FJSJ6zA2KeF-67" target="gu10VFRW0FJSJ6zA2KeF-2">
          <mxGeometry relative="1" as="geometry">
            <mxPoint x="460" y="140" as="sourcePoint" />
            <mxPoint x="390" y="215" as="targetPoint" />
          </mxGeometry>
        </mxCell>
        <mxCell id="gu10VFRW0FJSJ6zA2KeF-69" value="Name" style="ellipse;whiteSpace=wrap;html=1;align=center;" vertex="1" parent="1">
          <mxGeometry x="375" y="70" width="100" height="40" as="geometry" />
        </mxCell>
        <mxCell id="gu10VFRW0FJSJ6zA2KeF-70" value="" style="endArrow=none;html=1;rounded=0;entryX=0.5;entryY=0;entryDx=0;entryDy=0;exitX=0.5;exitY=1;exitDx=0;exitDy=0;" edge="1" parent="1" source="gu10VFRW0FJSJ6zA2KeF-69" target="gu10VFRW0FJSJ6zA2KeF-2">
          <mxGeometry relative="1" as="geometry">
            <mxPoint x="460" y="140" as="sourcePoint" />
            <mxPoint x="585" y="215" as="targetPoint" />
          </mxGeometry>
        </mxCell>
        <mxCell id="gu10VFRW0FJSJ6zA2KeF-71" value="Email_ID" style="ellipse;whiteSpace=wrap;html=1;align=center;" vertex="1" parent="1">
          <mxGeometry x="570" y="220" width="100" height="40" as="geometry" />
        </mxCell>
        <mxCell id="gu10VFRW0FJSJ6zA2KeF-72" value="Phone_Number" style="ellipse;shape=doubleEllipse;margin=3;whiteSpace=wrap;html=1;align=center;" vertex="1" parent="1">
          <mxGeometry x="510" y="70" width="110" height="40" as="geometry" />
        </mxCell>
        <mxCell id="gu10VFRW0FJSJ6zA2KeF-73" value="" style="endArrow=none;html=1;rounded=0;entryX=0.5;entryY=0;entryDx=0;entryDy=0;exitX=0;exitY=1;exitDx=0;exitDy=0;" edge="1" parent="1" source="gu10VFRW0FJSJ6zA2KeF-72" target="gu10VFRW0FJSJ6zA2KeF-2">
          <mxGeometry relative="1" as="geometry">
            <mxPoint x="510" y="180" as="sourcePoint" />
            <mxPoint x="515" y="260" as="targetPoint" />
          </mxGeometry>
        </mxCell>
        <mxCell id="gu10VFRW0FJSJ6zA2KeF-74" value="" style="endArrow=none;html=1;rounded=0;entryX=1;entryY=0.5;entryDx=0;entryDy=0;exitX=0;exitY=0.5;exitDx=0;exitDy=0;" edge="1" parent="1" source="gu10VFRW0FJSJ6zA2KeF-71" target="gu10VFRW0FJSJ6zA2KeF-2">
          <mxGeometry relative="1" as="geometry">
            <mxPoint x="510" y="260" as="sourcePoint" />
            <mxPoint x="515" y="340" as="targetPoint" />
          </mxGeometry>
        </mxCell>
        <mxCell id="gu10VFRW0FJSJ6zA2KeF-75" value="Work_Schedule" style="ellipse;whiteSpace=wrap;html=1;align=center;" vertex="1" parent="1">
          <mxGeometry x="570" y="130" width="100" height="40" as="geometry" />
        </mxCell>
        <mxCell id="gu10VFRW0FJSJ6zA2KeF-76" value="" style="endArrow=none;html=1;rounded=0;entryX=0.5;entryY=0;entryDx=0;entryDy=0;exitX=0;exitY=0.5;exitDx=0;exitDy=0;" edge="1" parent="1" source="gu10VFRW0FJSJ6zA2KeF-75" target="gu10VFRW0FJSJ6zA2KeF-2">
          <mxGeometry relative="1" as="geometry">
            <mxPoint x="545" y="190" as="sourcePoint" />
            <mxPoint x="470" y="190" as="targetPoint" />
          </mxGeometry>
        </mxCell>
        <mxCell id="gu10VFRW0FJSJ6zA2KeF-77" value="&lt;span style=&quot;font-size: 16px;&quot;&gt;Belongs&lt;/span&gt;" style="shape=rhombus;perimeter=rhombusPerimeter;whiteSpace=wrap;html=1;align=center;" vertex="1" parent="1">
          <mxGeometry x="365" y="340" width="120" height="60" as="geometry" />
        </mxCell>
        <mxCell id="gu10VFRW0FJSJ6zA2KeF-78" value="" style="fontSize=12;html=1;endArrow=ERoneToMany;rounded=0;exitX=0.5;exitY=0;exitDx=0;exitDy=0;entryX=0.5;entryY=1;entryDx=0;entryDy=0;" edge="1" parent="1" source="gu10VFRW0FJSJ6zA2KeF-77" target="gu10VFRW0FJSJ6zA2KeF-2">
          <mxGeometry width="100" height="100" relative="1" as="geometry">
            <mxPoint x="365" y="310" as="sourcePoint" />
            <mxPoint x="485" y="310" as="targetPoint" />
          </mxGeometry>
        </mxCell>
        <mxCell id="gu10VFRW0FJSJ6zA2KeF-80" value="" style="fontSize=12;html=1;endArrow=ERone;endFill=1;rounded=0;entryX=0.5;entryY=0;entryDx=0;entryDy=0;exitX=0.5;exitY=1;exitDx=0;exitDy=0;" edge="1" parent="1" source="gu10VFRW0FJSJ6zA2KeF-77" target="gu10VFRW0FJSJ6zA2KeF-6">
          <mxGeometry width="100" height="100" relative="1" as="geometry">
            <mxPoint x="450" y="440" as="sourcePoint" />
            <mxPoint x="340" y="440" as="targetPoint" />
          </mxGeometry>
        </mxCell>
        <mxCell id="gu10VFRW0FJSJ6zA2KeF-81" value="Department_ID" style="ellipse;whiteSpace=wrap;html=1;align=center;fontStyle=4;" vertex="1" parent="1">
          <mxGeometry x="570" y="475" width="100" height="50" as="geometry" />
        </mxCell>
        <mxCell id="gu10VFRW0FJSJ6zA2KeF-82" value="" style="endArrow=none;html=1;rounded=0;exitX=0;exitY=0.5;exitDx=0;exitDy=0;entryX=1;entryY=0.5;entryDx=0;entryDy=0;" edge="1" parent="1" source="gu10VFRW0FJSJ6zA2KeF-81" target="gu10VFRW0FJSJ6zA2KeF-6">
          <mxGeometry relative="1" as="geometry">
            <mxPoint x="550" y="499.5" as="sourcePoint" />
            <mxPoint x="480" y="500" as="targetPoint" />
          </mxGeometry>
        </mxCell>
        <mxCell id="gu10VFRW0FJSJ6zA2KeF-83" value="&lt;font style=&quot;font-size: 12px;&quot;&gt;&amp;nbsp;&lt;span style=&quot;font-family: Verdana;&quot;&gt;Department&lt;/span&gt;&lt;/font&gt;&lt;div&gt;&lt;font style=&quot;font-size: 12px;&quot;&gt;Name&lt;/font&gt;&lt;/div&gt;" style="ellipse;whiteSpace=wrap;html=1;align=center;" vertex="1" parent="1">
          <mxGeometry x="375" y="580" width="100" height="50" as="geometry" />
        </mxCell>
        <mxCell id="gu10VFRW0FJSJ6zA2KeF-84" value="" style="endArrow=none;html=1;rounded=0;exitX=0.5;exitY=1;exitDx=0;exitDy=0;entryX=0.5;entryY=0;entryDx=0;entryDy=0;" edge="1" parent="1" source="gu10VFRW0FJSJ6zA2KeF-6" target="gu10VFRW0FJSJ6zA2KeF-83">
          <mxGeometry relative="1" as="geometry">
            <mxPoint x="490" y="560" as="sourcePoint" />
            <mxPoint x="395" y="560" as="targetPoint" />
          </mxGeometry>
        </mxCell>
        <mxCell id="gu10VFRW0FJSJ6zA2KeF-85" value="Department&lt;div&gt;Head&amp;nbsp;&lt;br&gt;&lt;/div&gt;" style="ellipse;whiteSpace=wrap;html=1;align=center;" vertex="1" parent="1">
          <mxGeometry x="540" y="580" width="100" height="50" as="geometry" />
        </mxCell>
        <mxCell id="gu10VFRW0FJSJ6zA2KeF-86" value="" style="endArrow=none;html=1;rounded=0;exitX=0;exitY=0;exitDx=0;exitDy=0;entryX=1;entryY=1;entryDx=0;entryDy=0;" edge="1" parent="1" source="gu10VFRW0FJSJ6zA2KeF-85" target="gu10VFRW0FJSJ6zA2KeF-6">
          <mxGeometry relative="1" as="geometry">
            <mxPoint x="570" y="549" as="sourcePoint" />
            <mxPoint x="475" y="549" as="targetPoint" />
          </mxGeometry>
        </mxCell>
        <mxCell id="gu10VFRW0FJSJ6zA2KeF-87" value="&lt;font style=&quot;font-size: 16px;&quot;&gt;Has&lt;/font&gt;" style="shape=rhombus;perimeter=rhombusPerimeter;whiteSpace=wrap;html=1;align=center;" vertex="1" parent="1">
          <mxGeometry x="-270" y="475" width="120" height="60" as="geometry" />
        </mxCell>
        <mxCell id="gu10VFRW0FJSJ6zA2KeF-88" value="" style="fontSize=12;html=1;endArrow=ERone;endFill=1;rounded=0;entryX=0.75;entryY=1;entryDx=0;entryDy=0;exitX=0;exitY=0.5;exitDx=0;exitDy=0;" edge="1" parent="1" source="gu10VFRW0FJSJ6zA2KeF-87" target="gu10VFRW0FJSJ6zA2KeF-1">
          <mxGeometry width="100" height="100" relative="1" as="geometry">
            <mxPoint x="-300" y="380" as="sourcePoint" />
            <mxPoint x="-370" y="380" as="targetPoint" />
            <Array as="points">
              <mxPoint x="-355" y="505" />
            </Array>
          </mxGeometry>
        </mxCell>
        <mxCell id="gu10VFRW0FJSJ6zA2KeF-90" value="" style="edgeStyle=entityRelationEdgeStyle;fontSize=12;html=1;endArrow=ERoneToMany;rounded=0;exitX=1;exitY=0.5;exitDx=0;exitDy=0;entryX=0;entryY=0.5;entryDx=0;entryDy=0;" edge="1" parent="1" source="gu10VFRW0FJSJ6zA2KeF-87" target="gu10VFRW0FJSJ6zA2KeF-7">
          <mxGeometry width="100" height="100" relative="1" as="geometry">
            <mxPoint x="-150" y="550" as="sourcePoint" />
            <mxPoint x="-30" y="550" as="targetPoint" />
          </mxGeometry>
        </mxCell>
        <mxCell id="gu10VFRW0FJSJ6zA2KeF-91" value="&lt;span style=&quot;font-size: 16px;&quot;&gt;Updates&lt;/span&gt;" style="shape=rhombus;perimeter=rhombusPerimeter;whiteSpace=wrap;html=1;align=center;" vertex="1" parent="1">
          <mxGeometry x="140" y="475" width="120" height="60" as="geometry" />
        </mxCell>
        <mxCell id="gu10VFRW0FJSJ6zA2KeF-92" value="" style="fontSize=12;html=1;endArrow=ERone;endFill=1;rounded=0;entryX=0;entryY=1;entryDx=0;entryDy=0;exitX=0.5;exitY=0;exitDx=0;exitDy=0;" edge="1" parent="1" source="gu10VFRW0FJSJ6zA2KeF-91" target="gu10VFRW0FJSJ6zA2KeF-2">
          <mxGeometry width="100" height="100" relative="1" as="geometry">
            <mxPoint x="225" y="475" as="sourcePoint" />
            <mxPoint x="140" y="230" as="targetPoint" />
            <Array as="points">
              <mxPoint x="200" y="290" />
              <mxPoint x="375" y="290" />
            </Array>
          </mxGeometry>
        </mxCell>
        <mxCell id="gu10VFRW0FJSJ6zA2KeF-93" value="" style="edgeStyle=entityRelationEdgeStyle;fontSize=12;html=1;endArrow=ERoneToMany;rounded=0;exitX=0;exitY=0.5;exitDx=0;exitDy=0;entryX=1;entryY=0.5;entryDx=0;entryDy=0;" edge="1" parent="1" source="gu10VFRW0FJSJ6zA2KeF-91" target="gu10VFRW0FJSJ6zA2KeF-7">
          <mxGeometry width="100" height="100" relative="1" as="geometry">
            <mxPoint x="30" y="440" as="sourcePoint" />
            <mxPoint x="150" y="440" as="targetPoint" />
            <Array as="points">
              <mxPoint x="20" y="520" />
            </Array>
          </mxGeometry>
        </mxCell>
      </root>
    </mxGraphModel>
  </diagram>
</mxfile>
